<svg xmlns="http://www.w3.org/2000/svg" viewBox="0 0 350 450" width="350" height="450">
<rect width="350" height="450" fill="#ffffff"/>
<text x="175" y="25" text-anchor="middle" font-family="Arial,sans-serif" font-size="18" fill="#333" font-weight="bold">AP Ankle</text>
<rect x="110" y="40" width="70" height="180" fill="#f5e6d0" stroke="#8b6914" stroke-width="2" rx="12"/>
<text x="145" y="130" text-anchor="middle" font-family="Arial,sans-serif" font-size="13" fill="#5a3e1b">Tibia</text>
<rect x="200" y="60" width="35" height="160" fill="#f5e6d0" stroke="#8b6914" stroke-width="2" rx="8"/>
<text x="218" y="140" text-anchor="middle" font-family="Arial,sans-serif" font-size="11" fill="#5a3e1b">Fibula</text>
<path d="M 110 200 Q 95 230 100 260 Q 110 270 120 260" fill="#f0dfc4" stroke="#8b6914" stroke-width="2"/>
<text x="55" y="245" text-anchor="end" font-family="Arial,sans-serif" font-size="10" fill="#5a3e1b">Medial</text>
<text x="55" y="258" text-anchor="end" font-family="Arial,sans-serif" font-size="10" fill="#5a3e1b">Malleolus</text>
<path d="M 235 210 Q 250 240 248 270 Q 240 280 230 270" fill="#f0dfc4" stroke="#8b6914" stroke-width="2"/>
<text x="280" y="250" text-anchor="start" font-family="Arial,sans-serif" font-size="10" fill="#5a3e1b">Lateral</text>
<text x="280" y="263" text-anchor="start" font-family="Arial,sans-serif" font-size="10" fill="#5a3e1b">Malleolus</text>
<ellipse cx="170" cy="280" rx="55" ry="30" fill="#e8d4b8" stroke="#8b6914" stroke-width="2"/>
<text x="170" y="285" text-anchor="middle" font-family="Arial,sans-serif" font-size="13" fill="#5a3e1b">Talus</text>
<ellipse cx="170" cy="350" rx="60" ry="40" fill="#f0dfc4" stroke="#8b6914" stroke-width="2"/>
<text x="170" y="355" text-anchor="middle" font-family="Arial,sans-serif" font-size="12" fill="#5a3e1b">Calcaneus</text>
<line x1="115" y1="260" x2="232" y2="260" stroke="#2980b9" stroke-width="1.5" stroke-dasharray="5,3"/>
<text x="175" y="252" text-anchor="middle" font-family="Arial,sans-serif" font-size="10" fill="#2980b9">Ankle Mortise</text>
<line x1="280" y1="305" x2="225" y2="285" stroke="#e74c3c" stroke-width="2.5"/>
<polygon points="225,285 234.9868808191834,284.4879340829279 232.32526047672928,291.8073900246767" fill="#e74c3c"/>
<text x="295" y="310" text-anchor="middle" font-family="Arial,sans-serif" font-size="20" fill="#e74c3c" font-weight="bold">?</text>
</svg>
