<svg xmlns="http://www.w3.org/2000/svg" viewBox="0 0 400 450" width="400" height="450">
<rect width="400" height="450" fill="#f8f9fa"/>
<text x="200" y="25" text-anchor="middle" font-family="Arial,sans-serif" font-size="16" fill="#333" font-weight="bold">Beam Geometry: SID, SOD, OID</text>
<rect x="170" y="50" width="60" height="30" fill="#888" stroke="#333" stroke-width="2" rx="3"/>
<text x="200" y="70" text-anchor="middle" font-family="Arial,sans-serif" font-size="10" fill="#fff">Tube</text>
<line x1="200" y1="80" x2="200" y2="400" stroke="#f39c12" stroke-width="1.5" stroke-dasharray="8,4"/>
<ellipse cx="200" cy="250" rx="60" ry="15" fill="#fce4ec" stroke="#e91e63" stroke-width="2"/>
<text x="200" y="254" text-anchor="middle" font-family="Arial,sans-serif" font-size="10" fill="#c2185b">Object</text>
<rect x="120" y="380" width="160" height="15" fill="#e3f2fd" stroke="#1976D2" stroke-width="2" rx="3"/>
<text x="200" y="392" text-anchor="middle" font-family="Arial,sans-serif" font-size="10" fill="#1565C0">IR</text>
<line x1="100" y1="65" x2="100" y2="387" stroke="#333" stroke-width="1.5"/>
<line x1="95" y1="65" x2="105" y2="65" stroke="#333" stroke-width="1.5"/>
<line x1="95" y1="387" x2="105" y2="387" stroke="#333" stroke-width="1.5"/>
<text x="85" y="225" text-anchor="end" font-family="Arial,sans-serif" font-size="12" fill="#333" font-weight="bold">SID</text>
<line x1="310" y1="65" x2="310" y2="250" stroke="#4CAF50" stroke-width="1.5"/>
<line x1="305" y1="65" x2="315" y2="65" stroke="#4CAF50" stroke-width="1.5"/>
<line x1="305" y1="250" x2="315" y2="250" stroke="#4CAF50" stroke-width="1.5"/>
<text x="325" y="160" text-anchor="start" font-family="Arial,sans-serif" font-size="11" fill="#4CAF50" font-weight="bold">SOD</text>
<line x1="330" y1="250" x2="330" y2="387" stroke="#e91e63" stroke-width="1.5"/>
<line x1="325" y1="250" x2="335" y2="250" stroke="#e91e63" stroke-width="1.5"/>
<line x1="325" y1="387" x2="335" y2="387" stroke="#e91e63" stroke-width="1.5"/>
<text x="345" y="320" text-anchor="start" font-family="Arial,sans-serif" font-size="11" fill="#e91e63" font-weight="bold">OID</text>
<text x="200" y="435" text-anchor="middle" font-family="Arial,sans-serif" font-size="11" fill="#444">SID = SOD + OID    |    Magnification = SID / SOD</text>
</svg>
