<svg xmlns="http://www.w3.org/2000/svg" viewBox="0 0 350 500" width="350" height="500">
<rect width="350" height="500" fill="#ffffff"/>
<text x="175" y="25" text-anchor="middle" font-family="Arial,sans-serif" font-size="18" fill="#333" font-weight="bold">Lateral Cervical Spine</text>
<rect x="158" y="85" width="24" height="30" fill="#e8d4b8" stroke="#8b6914" stroke-width="2" rx="5"/>
<text x="130" y="103" text-anchor="end" font-family="Arial,sans-serif" font-size="10" fill="#5a3e1b">Dens</text>
<line x1="132" y1="100" x2="155" y2="100" stroke="#5a3e1b" stroke-width="1.5"/>
<polygon points="155,100 145.78939005997114,103.8941834230865 145.78939005997114,96.1058165769135" fill="#5a3e1b"/>
<rect x="120" y="62" width="100" height="36" fill="#f5e6d0" stroke="#8b6914" stroke-width="2" rx="4"/>
<text x="170" y="85" text-anchor="middle" font-family="Arial,sans-serif" font-size="11" fill="#5a3e1b">C1 (Atlas)</text>
<line x1="220" y1="80" x2="245" y2="75" stroke="#8b6914" stroke-width="2"/>
<rect x="122" y="100" width="96" height="40" fill="#f5e6d0" stroke="#8b6914" stroke-width="2" rx="4"/>
<text x="170" y="125" text-anchor="middle" font-family="Arial,sans-serif" font-size="11" fill="#5a3e1b">C2 (Axis)</text>
<line x1="218" y1="120" x2="243" y2="115" stroke="#8b6914" stroke-width="2"/>
<rect x="124" y="148" width="92" height="44" fill="#f5e6d0" stroke="#8b6914" stroke-width="2" rx="4"/>
<text x="170" y="175" text-anchor="middle" font-family="Arial,sans-serif" font-size="11" fill="#5a3e1b">C3</text>
<line x1="216" y1="170" x2="241" y2="165" stroke="#8b6914" stroke-width="2"/>
<rect x="124" y="193" width="92" height="44" fill="#f5e6d0" stroke="#8b6914" stroke-width="2" rx="4"/>
<text x="170" y="220" text-anchor="middle" font-family="Arial,sans-serif" font-size="11" fill="#5a3e1b">C4</text>
<line x1="216" y1="215" x2="241" y2="210" stroke="#8b6914" stroke-width="2"/>
<rect x="122" y="236" width="96" height="48" fill="#f5e6d0" stroke="#8b6914" stroke-width="2" rx="4"/>
<text x="170" y="265" text-anchor="middle" font-family="Arial,sans-serif" font-size="11" fill="#5a3e1b">C5</text>
<line x1="218" y1="260" x2="243" y2="255" stroke="#8b6914" stroke-width="2"/>
<rect x="120" y="284" width="100" height="52" fill="#f5e6d0" stroke="#8b6914" stroke-width="2" rx="4"/>
<text x="170" y="315" text-anchor="middle" font-family="Arial,sans-serif" font-size="11" fill="#5a3e1b">C6</text>
<line x1="220" y1="310" x2="245" y2="305" stroke="#8b6914" stroke-width="2"/>
<rect x="118" y="332" width="104" height="56" fill="#f5e6d0" stroke="#8b6914" stroke-width="2" rx="4"/>
<text x="170" y="365" text-anchor="middle" font-family="Arial,sans-serif" font-size="11" fill="#5a3e1b">C7</text>
<line x1="222" y1="360" x2="247" y2="355" stroke="#8b6914" stroke-width="2"/>
<line x1="130" y1="99.0" x2="210" y2="99.0" stroke="#2980b9" stroke-width="1" stroke-dasharray="3,3"/>
<line x1="130" y1="144.0" x2="210" y2="144.0" stroke="#2980b9" stroke-width="1" stroke-dasharray="3,3"/>
<line x1="130" y1="192.5" x2="210" y2="192.5" stroke="#2980b9" stroke-width="1" stroke-dasharray="3,3"/>
<line x1="130" y1="236.5" x2="210" y2="236.5" stroke="#2980b9" stroke-width="1" stroke-dasharray="3,3"/>
<line x1="130" y1="284.0" x2="210" y2="284.0" stroke="#2980b9" stroke-width="1" stroke-dasharray="3,3"/>
<line x1="130" y1="334.0" x2="210" y2="334.0" stroke="#2980b9" stroke-width="1" stroke-dasharray="3,3"/>
<path d="M 115 70 Q 100 220 115 370" fill="none" stroke="#27ae60" stroke-width="2"/>
<text x="80" y="220" text-anchor="middle" font-family="Arial,sans-serif" font-size="10" fill="#27ae60">Lordosis</text>
<line x1="280" y1="380" x2="225" y2="365" stroke="#e74c3c" stroke-width="2.5"/>
<polygon points="225,365 234.91069068163364,363.66650451332583 232.8614358017113,371.180439073041" fill="#e74c3c"/>
<text x="290" y="385" text-anchor="middle" font-family="Arial,sans-serif" font-size="20" fill="#e74c3c" font-weight="bold">?</text>
<text x="175" y="420" text-anchor="middle" font-family="Arial,sans-serif" font-size="11" fill="#888">Normal cervical lordosis</text>
<text x="175" y="440" text-anchor="middle" font-family="Arial,sans-serif" font-size="10" fill="#aaa">Anterior (left) — Posterior (right)</text>
</svg>
