<svg xmlns="http://www.w3.org/2000/svg" viewBox="0 0 350 450" width="350" height="450">
<rect width="350" height="450" fill="#ffffff"/>
<text x="175" y="25" text-anchor="middle" font-family="Arial,sans-serif" font-size="18" fill="#333" font-weight="bold">Lateral Elbow</text>
<rect x="120" y="40" width="80" height="160" fill="#f5e6d0" stroke="#8b6914" stroke-width="2" rx="15"/>
<text x="160" y="120" text-anchor="middle" font-family="Arial,sans-serif" font-size="13" fill="#5a3e1b">Humerus</text>
<path d="M 200 180 Q 240 190 250 220 Q 240 250 200 240" fill="#f0dfc4" stroke="#8b6914" stroke-width="2"/>
<text x="260" y="220" text-anchor="start" font-family="Arial,sans-serif" font-size="11" fill="#5a3e1b">Olecranon</text>
<ellipse cx="160" cy="220" rx="40" ry="20" fill="none" stroke="#8b6914" stroke-width="1.5"/>
<text x="100" y="225" text-anchor="end" font-family="Arial,sans-serif" font-size="10" fill="#5a3e1b">Trochlea</text>
<circle cx="130" cy="250" r="18" fill="#f0dfc4" stroke="#8b6914" stroke-width="2"/>
<text x="90" y="255" text-anchor="end" font-family="Arial,sans-serif" font-size="10" fill="#5a3e1b">Radial</text>
<text x="90" y="268" text-anchor="end" font-family="Arial,sans-serif" font-size="10" fill="#5a3e1b">Head</text>
<rect x="100" y="270" width="40" height="150" fill="#f5e6d0" stroke="#8b6914" stroke-width="2" rx="10"/>
<text x="120" y="350" text-anchor="middle" font-family="Arial,sans-serif" font-size="12" fill="#5a3e1b">Radius</text>
<rect x="165" y="260" width="45" height="160" fill="#f5e6d0" stroke="#8b6914" stroke-width="2" rx="10"/>
<text x="188" y="350" text-anchor="middle" font-family="Arial,sans-serif" font-size="12" fill="#5a3e1b">Ulna</text>
<line x1="50" y1="290" x2="112" y2="255" stroke="#e74c3c" stroke-width="2.5"/>
<polygon points="112,255 105.89353560151591,262.9190335616189 102.06481832372148,256.1367343838116" fill="#e74c3c"/>
<text x="40" y="305" text-anchor="middle" font-family="Arial,sans-serif" font-size="20" fill="#e74c3c" font-weight="bold">?</text>
<text x="175" y="440" text-anchor="middle" font-family="Arial,sans-serif" font-size="12" fill="#888">90° flexion</text>
</svg>
