<svg xmlns="http://www.w3.org/2000/svg" viewBox="0 0 450 350" width="450" height="350">
<rect width="450" height="350" fill="#f8f9fa"/>
<text x="225" y="25" text-anchor="middle" font-family="Arial,sans-serif" font-size="16" fill="#333" font-weight="bold">Radiographic Grid (Cross-section)</text>
<rect x="50" y="80" width="350" height="120" fill="#f0f0f0" stroke="#666" stroke-width="2" rx="5"/>
<rect x="70" y="85" width="3" height="110" fill="#444" stroke="#333" stroke-width="0.5" rx="0"/>
<rect x="87" y="85" width="3" height="110" fill="#444" stroke="#333" stroke-width="0.5" rx="0"/>
<rect x="104" y="85" width="3" height="110" fill="#444" stroke="#333" stroke-width="0.5" rx="0"/>
<rect x="121" y="85" width="3" height="110" fill="#444" stroke="#333" stroke-width="0.5" rx="0"/>
<rect x="138" y="85" width="3" height="110" fill="#444" stroke="#333" stroke-width="0.5" rx="0"/>
<rect x="155" y="85" width="3" height="110" fill="#444" stroke="#333" stroke-width="0.5" rx="0"/>
<rect x="172" y="85" width="3" height="110" fill="#444" stroke="#333" stroke-width="0.5" rx="0"/>
<rect x="189" y="85" width="3" height="110" fill="#444" stroke="#333" stroke-width="0.5" rx="0"/>
<rect x="206" y="85" width="3" height="110" fill="#444" stroke="#333" stroke-width="0.5" rx="0"/>
<rect x="223" y="85" width="3" height="110" fill="#444" stroke="#333" stroke-width="0.5" rx="0"/>
<rect x="240" y="85" width="3" height="110" fill="#444" stroke="#333" stroke-width="0.5" rx="0"/>
<rect x="257" y="85" width="3" height="110" fill="#444" stroke="#333" stroke-width="0.5" rx="0"/>
<rect x="274" y="85" width="3" height="110" fill="#444" stroke="#333" stroke-width="0.5" rx="0"/>
<rect x="291" y="85" width="3" height="110" fill="#444" stroke="#333" stroke-width="0.5" rx="0"/>
<rect x="308" y="85" width="3" height="110" fill="#444" stroke="#333" stroke-width="0.5" rx="0"/>
<rect x="325" y="85" width="3" height="110" fill="#444" stroke="#333" stroke-width="0.5" rx="0"/>
<rect x="342" y="85" width="3" height="110" fill="#444" stroke="#333" stroke-width="0.5" rx="0"/>
<rect x="359" y="85" width="3" height="110" fill="#444" stroke="#333" stroke-width="0.5" rx="0"/>
<rect x="376" y="85" width="3" height="110" fill="#444" stroke="#333" stroke-width="0.5" rx="0"/>
<rect x="393" y="85" width="3" height="110" fill="#444" stroke="#333" stroke-width="0.5" rx="0"/>
<rect x="73" y="85" width="14" height="110" fill="#e8e8e8" stroke="none" stroke-width="0" rx="0"/>
<rect x="90" y="85" width="14" height="110" fill="#e8e8e8" stroke="none" stroke-width="0" rx="0"/>
<rect x="107" y="85" width="14" height="110" fill="#e8e8e8" stroke="none" stroke-width="0" rx="0"/>
<rect x="124" y="85" width="14" height="110" fill="#e8e8e8" stroke="none" stroke-width="0" rx="0"/>
<rect x="141" y="85" width="14" height="110" fill="#e8e8e8" stroke="none" stroke-width="0" rx="0"/>
<rect x="158" y="85" width="14" height="110" fill="#e8e8e8" stroke="none" stroke-width="0" rx="0"/>
<rect x="175" y="85" width="14" height="110" fill="#e8e8e8" stroke="none" stroke-width="0" rx="0"/>
<rect x="192" y="85" width="14" height="110" fill="#e8e8e8" stroke="none" stroke-width="0" rx="0"/>
<rect x="209" y="85" width="14" height="110" fill="#e8e8e8" stroke="none" stroke-width="0" rx="0"/>
<rect x="226" y="85" width="14" height="110" fill="#e8e8e8" stroke="none" stroke-width="0" rx="0"/>
<rect x="243" y="85" width="14" height="110" fill="#e8e8e8" stroke="none" stroke-width="0" rx="0"/>
<rect x="260" y="85" width="14" height="110" fill="#e8e8e8" stroke="none" stroke-width="0" rx="0"/>
<rect x="277" y="85" width="14" height="110" fill="#e8e8e8" stroke="none" stroke-width="0" rx="0"/>
<rect x="294" y="85" width="14" height="110" fill="#e8e8e8" stroke="none" stroke-width="0" rx="0"/>
<rect x="311" y="85" width="14" height="110" fill="#e8e8e8" stroke="none" stroke-width="0" rx="0"/>
<rect x="328" y="85" width="14" height="110" fill="#e8e8e8" stroke="none" stroke-width="0" rx="0"/>
<rect x="345" y="85" width="14" height="110" fill="#e8e8e8" stroke="none" stroke-width="0" rx="0"/>
<rect x="362" y="85" width="14" height="110" fill="#e8e8e8" stroke="none" stroke-width="0" rx="0"/>
<rect x="379" y="85" width="14" height="110" fill="#e8e8e8" stroke="none" stroke-width="0" rx="0"/>
<text x="225" y="220" text-anchor="middle" font-family="Arial,sans-serif" font-size="10" fill="#999">Cross-section view</text>
<line x1="120" y1="250" x2="120" y2="198" stroke="#333" stroke-width="1.5"/>
<polygon points="120,198 123.8941834230865,207.21060994002886 116.1058165769135,207.21060994002886" fill="#333"/>
<text x="120" y="265" text-anchor="middle" font-family="Arial,sans-serif" font-size="10" fill="#333">Lead strips</text>
<line x1="180" y1="250" x2="180" y2="198" stroke="#2196F3" stroke-width="1.5"/>
<polygon points="180,198 183.8941834230865,207.21060994002886 176.1058165769135,207.21060994002886" fill="#2196F3"/>
<text x="180" y="265" text-anchor="middle" font-family="Arial,sans-serif" font-size="10" fill="#2196F3">Interspaces</text>
<line x1="250" y1="50" x2="250" y2="80" stroke="#4CAF50" stroke-width="2"/>
<line x1="250" y1="200" x2="250" y2="240" stroke="#4CAF50" stroke-width="2"/>
<text x="280" y="60" text-anchor="start" font-family="Arial,sans-serif" font-size="9" fill="#4CAF50">Primary radiation</text>
<line x1="300" y1="50" x2="330" y2="80" stroke="#e74c3c" stroke-width="2"/>
<text x="340" y="55" text-anchor="start" font-family="Arial,sans-serif" font-size="9" fill="#e74c3c">Scatter</text>
<line x1="330" y1="80" x2="332" y2="100" stroke="#e74c3c" stroke-width="2"/>
<text x="340" y="100" text-anchor="start" font-family="Arial,sans-serif" font-size="8" fill="#e74c3c">(absorbed)</text>
<text x="225" y="310" text-anchor="middle" font-family="Arial,sans-serif" font-size="11" fill="#444">Grid ratio = height of lead strip / width of interspace</text>
<text x="225" y="330" text-anchor="middle" font-family="Arial,sans-serif" font-size="10" fill="#888">Higher ratio = more scatter cleanup but more dose required</text>
</svg>
