<svg xmlns="http://www.w3.org/2000/svg" viewBox="0 0 400 500" width="400" height="500">
<rect width="400" height="500" fill="#f0f4ff"/>
<text x="200" y="25" text-anchor="middle" font-family="Arial,sans-serif" font-size="16" fill="#333" font-weight="bold">PA Hand Radiograph (Diagram)</text>
<rect x="120" y="380" width="160" height="50" fill="#e8ddd0" stroke="#8B7355" stroke-width="2" rx="8"/>
<text x="200" y="410" text-anchor="middle" font-family="Arial,sans-serif" font-size="11" fill="#666">Carpals</text>
<rect x="137" y="310" width="16" height="70" fill="#f5ebe0" stroke="#8B7355" stroke-width="1.5" rx="4"/>
<text x="145" y="370" text-anchor="middle" font-family="Arial,sans-serif" font-size="9" fill="#666">5</text>
<rect x="157" y="280" width="16" height="100" fill="#f5ebe0" stroke="#8B7355" stroke-width="1.5" rx="4"/>
<text x="165" y="370" text-anchor="middle" font-family="Arial,sans-serif" font-size="9" fill="#666">4</text>
<rect x="187" y="270" width="16" height="110" fill="#f5ebe0" stroke="#8B7355" stroke-width="1.5" rx="4"/>
<text x="195" y="370" text-anchor="middle" font-family="Arial,sans-serif" font-size="9" fill="#666">3</text>
<rect x="217" y="285" width="16" height="95" fill="#f5ebe0" stroke="#8B7355" stroke-width="1.5" rx="4"/>
<text x="225" y="370" text-anchor="middle" font-family="Arial,sans-serif" font-size="9" fill="#666">2</text>
<rect x="242" y="310" width="16" height="70" fill="#f5ebe0" stroke="#8B7355" stroke-width="1.5" rx="4"/>
<text x="250" y="370" text-anchor="middle" font-family="Arial,sans-serif" font-size="9" fill="#666">1</text>
<rect x="138" y="260" width="14" height="45" fill="#f5ebe0" stroke="#8B7355" stroke-width="1.5" rx="3"/>
<rect x="158" y="220" width="14" height="55" fill="#f5ebe0" stroke="#8B7355" stroke-width="1.5" rx="3"/>
<rect x="188" y="210" width="14" height="55" fill="#f5ebe0" stroke="#8B7355" stroke-width="1.5" rx="3"/>
<rect x="218" y="225" width="14" height="55" fill="#f5ebe0" stroke="#8B7355" stroke-width="1.5" rx="3"/>
<rect x="243" y="265" width="14" height="40" fill="#f5ebe0" stroke="#8B7355" stroke-width="1.5" rx="3"/>
<rect x="159" y="220" width="12" height="-5" fill="#f5ebe0" stroke="#8B7355" stroke-width="1.5" rx="3"/>
<rect x="189" y="170" width="12" height="35" fill="#f5ebe0" stroke="#8B7355" stroke-width="1.5" rx="3"/>
<rect x="219" y="160" width="12" height="60" fill="#f5ebe0" stroke="#8B7355" stroke-width="1.5" rx="3"/>
<rect x="244" y="180" width="12" height="80" fill="#f5ebe0" stroke="#8B7355" stroke-width="1.5" rx="3"/>
<rect x="140" y="230" width="10" height="25" fill="#f5ebe0" stroke="#8B7355" stroke-width="1.5" rx="3"/>
<rect x="160" y="195" width="10" height="20" fill="#f5ebe0" stroke="#8B7355" stroke-width="1.5" rx="3"/>
<rect x="190" y="140" width="10" height="25" fill="#f5ebe0" stroke="#8B7355" stroke-width="1.5" rx="3"/>
<rect x="220" y="130" width="10" height="25" fill="#f5ebe0" stroke="#8B7355" stroke-width="1.5" rx="3"/>
<rect x="245" y="155" width="10" height="20" fill="#f5ebe0" stroke="#8B7355" stroke-width="1.5" rx="3"/>
<line x1="60" y1="350" x2="130" y2="350" stroke="#e74c3c" stroke-width="2.5"/>
<polygon points="130,350 120.78939005997115,353.89418342308653 120.78939005997115,346.10581657691347" fill="#e74c3c"/>
<text x="55" y="345" text-anchor="end" font-family="Arial,sans-serif" font-size="18" fill="#e74c3c" font-weight="bold">?</text>
<text x="330" y="400" text-anchor="start" font-family="Arial,sans-serif" font-size="11" fill="#2c5282">Radius</text>
<line x1="300" y1="400" x2="285" y2="400" stroke="#2c5282" stroke-width="1"/>
<text x="330" y="420" text-anchor="start" font-family="Arial,sans-serif" font-size="11" fill="#2c5282">Ulna</text>
<line x1="300" y1="420" x2="285" y2="415" stroke="#2c5282" stroke-width="1"/>
<text x="200" y="470" text-anchor="middle" font-family="Arial,sans-serif" font-size="13" fill="#444">Which structure is indicated by the arrow?</text>
</svg>
