<svg xmlns="http://www.w3.org/2000/svg" viewBox="0 0 400 450" width="400" height="450">
<rect width="400" height="450" fill="#ffffff"/>
<text x="200" y="25" text-anchor="middle" font-family="Arial,sans-serif" font-size="18" fill="#333" font-weight="bold">AP Hip</text>
<path d="M 80 80 Q 120 50 200 60 Q 280 50 320 80 Q 330 120 310 160 L 90 160 Q 70 120 80 80" fill="#f5e6d0" stroke="#8b6914" stroke-width="2"/>
<text x="200" y="100" text-anchor="middle" font-family="Arial,sans-serif" font-size="14" fill="#5a3e1b">Ilium</text>
<circle cx="200" cy="210" r="50" fill="none" stroke="#8b6914" stroke-width="2"/>
<text x="200" y="215" text-anchor="middle" font-family="Arial,sans-serif" font-size="11" fill="#5a3e1b">Acetabulum</text>
<circle cx="200" cy="210" r="35" fill="#e8d4b8" stroke="#8b6914" stroke-width="1.5"/>
<text x="200" y="215" text-anchor="middle" font-family="Arial,sans-serif" font-size="9" fill="#5a3e1b">Femoral</text>
<text x="200" y="226" text-anchor="middle" font-family="Arial,sans-serif" font-size="9" fill="#5a3e1b">Head</text>
<path d="M 180 240 L 160 290 L 200 290 L 220 240" fill="#f0dfc4" stroke="#8b6914" stroke-width="2"/>
<text x="145" y="275" text-anchor="end" font-family="Arial,sans-serif" font-size="11" fill="#5a3e1b">Neck</text>
<ellipse cx="260" cy="270" rx="30" ry="22" fill="#f0dfc4" stroke="#8b6914" stroke-width="2"/>
<text x="305" y="275" text-anchor="start" font-family="Arial,sans-serif" font-size="10" fill="#5a3e1b">Greater</text>
<text x="305" y="288" text-anchor="start" font-family="Arial,sans-serif" font-size="10" fill="#5a3e1b">Trochanter</text>
<ellipse cx="140" cy="310" rx="18" ry="14" fill="#f0dfc4" stroke="#8b6914" stroke-width="2"/>
<text x="105" y="315" text-anchor="end" font-family="Arial,sans-serif" font-size="10" fill="#5a3e1b">Lesser</text>
<text x="105" y="328" text-anchor="end" font-family="Arial,sans-serif" font-size="10" fill="#5a3e1b">Trochanter</text>
<rect x="155" y="290" width="60" height="140" fill="#f5e6d0" stroke="#8b6914" stroke-width="2" rx="15"/>
<text x="185" y="380" text-anchor="middle" font-family="Arial,sans-serif" font-size="13" fill="#5a3e1b">Femur</text>
<path d="M 130 160 Q 100 200 110 260 Q 130 280 160 260" fill="#f5e6d0" stroke="#8b6914" stroke-width="1.5"/>
<text x="80" y="220" text-anchor="end" font-family="Arial,sans-serif" font-size="11" fill="#5a3e1b">Ischium</text>
<path d="M 160 170 Q 180 190 200 195 Q 200 200 180 200 Q 160 195 155 180" fill="#f5e6d0" stroke="#8b6914" stroke-width="1.5"/>
<line x1="340" y1="230" x2="290" y2="260" stroke="#e74c3c" stroke-width="2.5"/>
<polygon points="290,260 295.89449202303814,251.92194554423284 299.90157370710665,258.6004150176803" fill="#e74c3c"/>
<text x="345" y="225" text-anchor="middle" font-family="Arial,sans-serif" font-size="20" fill="#e74c3c" font-weight="bold">?</text>
</svg>
