<svg xmlns="http://www.w3.org/2000/svg" viewBox="0 0 600 400" width="600" height="400">
<rect width="600" height="400" fill="#ffffff"/>
<text x="300" y="25" text-anchor="middle" font-family="Arial,sans-serif" font-size="18" fill="#333" font-weight="bold">Common Image Quality Issues</text>
<rect x="25" y="60" width="120" height="120" fill="#1a1a1a" stroke="#555" stroke-width="2" rx="4"/>
<text x="85" y="205" text-anchor="middle" font-family="Arial,sans-serif" font-size="11" fill="#333" font-weight="bold">Motion Blur</text>
<rect x="175" y="60" width="120" height="120" fill="#1a1a1a" stroke="#555" stroke-width="2" rx="4"/>
<text x="235" y="205" text-anchor="middle" font-family="Arial,sans-serif" font-size="11" fill="#333" font-weight="bold">Grid Cutoff</text>
<rect x="325" y="60" width="120" height="120" fill="#1a1a1a" stroke="#555" stroke-width="2" rx="4"/>
<text x="385" y="205" text-anchor="middle" font-family="Arial,sans-serif" font-size="11" fill="#333" font-weight="bold">Underexposure</text>
<rect x="475" y="60" width="120" height="120" fill="#1a1a1a" stroke="#555" stroke-width="2" rx="4"/>
<text x="535" y="205" text-anchor="middle" font-family="Arial,sans-serif" font-size="11" fill="#333" font-weight="bold">Overexposure</text>
<rect x="50" y="90" width="40" height="50" fill="none" stroke="rgba(200,200,200,0.3)" stroke-width="1" rx="0"/>
<rect x="52" y="91" width="40" height="50" fill="none" stroke="rgba(200,200,200,0.44999999999999996)" stroke-width="1" rx="0"/>
<rect x="54" y="92" width="40" height="50" fill="none" stroke="rgba(200,200,200,0.6)" stroke-width="1" rx="0"/>
<rect x="56" y="93" width="40" height="50" fill="none" stroke="rgba(200,200,200,0.75)" stroke-width="1" rx="0"/>
<rect x="58" y="94" width="40" height="50" fill="none" stroke="rgba(200,200,200,0.8999999999999999)" stroke-width="1" rx="0"/>
<rect x="175" y="60" width="20" height="120" fill="#333" stroke="#333" stroke-width="2" rx="0"/>
<rect x="275" y="60" width="20" height="120" fill="#333" stroke="#333" stroke-width="2" rx="0"/>
<rect x="195" y="60" width="80" height="120" fill="#666" stroke="#333" stroke-width="2" rx="0"/>
<rect x="330" y="65" width="6" height="6" fill="rgba(100,100,100,0.1)" stroke="none" stroke-width="0" rx="0"/>
<rect x="338" y="65" width="6" height="6" fill="rgba(100,100,100,0.1)" stroke="none" stroke-width="0" rx="0"/>
<rect x="346" y="65" width="6" height="6" fill="rgba(100,100,100,0.2)" stroke="none" stroke-width="0" rx="0"/>
<rect x="354" y="65" width="6" height="6" fill="rgba(100,100,100,0.1)" stroke="none" stroke-width="0" rx="0"/>
<rect x="362" y="65" width="6" height="6" fill="rgba(100,100,100,0.1)" stroke="none" stroke-width="0" rx="0"/>
<rect x="370" y="65" width="6" height="6" fill="rgba(100,100,100,0.2)" stroke="none" stroke-width="0" rx="0"/>
<rect x="378" y="65" width="6" height="6" fill="rgba(100,100,100,0.2)" stroke="none" stroke-width="0" rx="0"/>
<rect x="386" y="65" width="6" height="6" fill="rgba(100,100,100,0.1)" stroke="none" stroke-width="0" rx="0"/>
<rect x="394" y="65" width="6" height="6" fill="rgba(100,100,100,0.1)" stroke="none" stroke-width="0" rx="0"/>
<rect x="402" y="65" width="6" height="6" fill="rgba(100,100,100,0.1)" stroke="none" stroke-width="0" rx="0"/>
<rect x="410" y="65" width="6" height="6" fill="rgba(100,100,100,0.2)" stroke="none" stroke-width="0" rx="0"/>
<rect x="418" y="65" width="6" height="6" fill="rgba(100,100,100,0.1)" stroke="none" stroke-width="0" rx="0"/>
<rect x="426" y="65" width="6" height="6" fill="rgba(100,100,100,0.2)" stroke="none" stroke-width="0" rx="0"/>
<rect x="434" y="65" width="6" height="6" fill="rgba(100,100,100,0.15000000000000002)" stroke="none" stroke-width="0" rx="0"/>
<rect x="330" y="73" width="6" height="6" fill="rgba(100,100,100,0.1)" stroke="none" stroke-width="0" rx="0"/>
<rect x="338" y="73" width="6" height="6" fill="rgba(100,100,100,0.1)" stroke="none" stroke-width="0" rx="0"/>
<rect x="346" y="73" width="6" height="6" fill="rgba(100,100,100,0.1)" stroke="none" stroke-width="0" rx="0"/>
<rect x="354" y="73" width="6" height="6" fill="rgba(100,100,100,0.15000000000000002)" stroke="none" stroke-width="0" rx="0"/>
<rect x="362" y="73" width="6" height="6" fill="rgba(100,100,100,0.15000000000000002)" stroke="none" stroke-width="0" rx="0"/>
<rect x="370" y="73" width="6" height="6" fill="rgba(100,100,100,0.1)" stroke="none" stroke-width="0" rx="0"/>
<rect x="378" y="73" width="6" height="6" fill="rgba(100,100,100,0.1)" stroke="none" stroke-width="0" rx="0"/>
<rect x="386" y="73" width="6" height="6" fill="rgba(100,100,100,0.15000000000000002)" stroke="none" stroke-width="0" rx="0"/>
<rect x="394" y="73" width="6" height="6" fill="rgba(100,100,100,0.1)" stroke="none" stroke-width="0" rx="0"/>
<rect x="402" y="73" width="6" height="6" fill="rgba(100,100,100,0.1)" stroke="none" stroke-width="0" rx="0"/>
<rect x="410" y="73" width="6" height="6" fill="rgba(100,100,100,0.15000000000000002)" stroke="none" stroke-width="0" rx="0"/>
<rect x="418" y="73" width="6" height="6" fill="rgba(100,100,100,0.1)" stroke="none" stroke-width="0" rx="0"/>
<rect x="426" y="73" width="6" height="6" fill="rgba(100,100,100,0.1)" stroke="none" stroke-width="0" rx="0"/>
<rect x="434" y="73" width="6" height="6" fill="rgba(100,100,100,0.15000000000000002)" stroke="none" stroke-width="0" rx="0"/>
<rect x="330" y="81" width="6" height="6" fill="rgba(100,100,100,0.15000000000000002)" stroke="none" stroke-width="0" rx="0"/>
<rect x="338" y="81" width="6" height="6" fill="rgba(100,100,100,0.15000000000000002)" stroke="none" stroke-width="0" rx="0"/>
<rect x="346" y="81" width="6" height="6" fill="rgba(100,100,100,0.2)" stroke="none" stroke-width="0" rx="0"/>
<rect x="354" y="81" width="6" height="6" fill="rgba(100,100,100,0.15000000000000002)" stroke="none" stroke-width="0" rx="0"/>
<rect x="362" y="81" width="6" height="6" fill="rgba(100,100,100,0.15000000000000002)" stroke="none" stroke-width="0" rx="0"/>
<rect x="370" y="81" width="6" height="6" fill="rgba(100,100,100,0.15000000000000002)" stroke="none" stroke-width="0" rx="0"/>
<rect x="378" y="81" width="6" height="6" fill="rgba(100,100,100,0.1)" stroke="none" stroke-width="0" rx="0"/>
<rect x="386" y="81" width="6" height="6" fill="rgba(100,100,100,0.15000000000000002)" stroke="none" stroke-width="0" rx="0"/>
<rect x="394" y="81" width="6" height="6" fill="rgba(100,100,100,0.15000000000000002)" stroke="none" stroke-width="0" rx="0"/>
<rect x="402" y="81" width="6" height="6" fill="rgba(100,100,100,0.1)" stroke="none" stroke-width="0" rx="0"/>
<rect x="410" y="81" width="6" height="6" fill="rgba(100,100,100,0.2)" stroke="none" stroke-width="0" rx="0"/>
<rect x="418" y="81" width="6" height="6" fill="rgba(100,100,100,0.1)" stroke="none" stroke-width="0" rx="0"/>
<rect x="426" y="81" width="6" height="6" fill="rgba(100,100,100,0.1)" stroke="none" stroke-width="0" rx="0"/>
<rect x="434" y="81" width="6" height="6" fill="rgba(100,100,100,0.15000000000000002)" stroke="none" stroke-width="0" rx="0"/>
<rect x="330" y="89" width="6" height="6" fill="rgba(100,100,100,0.15000000000000002)" stroke="none" stroke-width="0" rx="0"/>
<rect x="338" y="89" width="6" height="6" fill="rgba(100,100,100,0.15000000000000002)" stroke="none" stroke-width="0" rx="0"/>
<rect x="346" y="89" width="6" height="6" fill="rgba(100,100,100,0.2)" stroke="none" stroke-width="0" rx="0"/>
<rect x="354" y="89" width="6" height="6" fill="rgba(100,100,100,0.15000000000000002)" stroke="none" stroke-width="0" rx="0"/>
<rect x="362" y="89" width="6" height="6" fill="rgba(100,100,100,0.15000000000000002)" stroke="none" stroke-width="0" rx="0"/>
<rect x="370" y="89" width="6" height="6" fill="rgba(100,100,100,0.15000000000000002)" stroke="none" stroke-width="0" rx="0"/>
<rect x="378" y="89" width="6" height="6" fill="rgba(100,100,100,0.1)" stroke="none" stroke-width="0" rx="0"/>
<rect x="386" y="89" width="6" height="6" fill="rgba(100,100,100,0.2)" stroke="none" stroke-width="0" rx="0"/>
<rect x="394" y="89" width="6" height="6" fill="rgba(100,100,100,0.15000000000000002)" stroke="none" stroke-width="0" rx="0"/>
<rect x="402" y="89" width="6" height="6" fill="rgba(100,100,100,0.15000000000000002)" stroke="none" stroke-width="0" rx="0"/>
<rect x="410" y="89" width="6" height="6" fill="rgba(100,100,100,0.2)" stroke="none" stroke-width="0" rx="0"/>
<rect x="418" y="89" width="6" height="6" fill="rgba(100,100,100,0.15000000000000002)" stroke="none" stroke-width="0" rx="0"/>
<rect x="426" y="89" width="6" height="6" fill="rgba(100,100,100,0.15000000000000002)" stroke="none" stroke-width="0" rx="0"/>
<rect x="434" y="89" width="6" height="6" fill="rgba(100,100,100,0.2)" stroke="none" stroke-width="0" rx="0"/>
<rect x="330" y="97" width="6" height="6" fill="rgba(100,100,100,0.2)" stroke="none" stroke-width="0" rx="0"/>
<rect x="338" y="97" width="6" height="6" fill="rgba(100,100,100,0.15000000000000002)" stroke="none" stroke-width="0" rx="0"/>
<rect x="346" y="97" width="6" height="6" fill="rgba(100,100,100,0.2)" stroke="none" stroke-width="0" rx="0"/>
<rect x="354" y="97" width="6" height="6" fill="rgba(100,100,100,0.2)" stroke="none" stroke-width="0" rx="0"/>
<rect x="362" y="97" width="6" height="6" fill="rgba(100,100,100,0.2)" stroke="none" stroke-width="0" rx="0"/>
<rect x="370" y="97" width="6" height="6" fill="rgba(100,100,100,0.1)" stroke="none" stroke-width="0" rx="0"/>
<rect x="378" y="97" width="6" height="6" fill="rgba(100,100,100,0.15000000000000002)" stroke="none" stroke-width="0" rx="0"/>
<rect x="386" y="97" width="6" height="6" fill="rgba(100,100,100,0.2)" stroke="none" stroke-width="0" rx="0"/>
<rect x="394" y="97" width="6" height="6" fill="rgba(100,100,100,0.2)" stroke="none" stroke-width="0" rx="0"/>
<rect x="402" y="97" width="6" height="6" fill="rgba(100,100,100,0.15000000000000002)" stroke="none" stroke-width="0" rx="0"/>
<rect x="410" y="97" width="6" height="6" fill="rgba(100,100,100,0.1)" stroke="none" stroke-width="0" rx="0"/>
<rect x="418" y="97" width="6" height="6" fill="rgba(100,100,100,0.15000000000000002)" stroke="none" stroke-width="0" rx="0"/>
<rect x="426" y="97" width="6" height="6" fill="rgba(100,100,100,0.15000000000000002)" stroke="none" stroke-width="0" rx="0"/>
<rect x="434" y="97" width="6" height="6" fill="rgba(100,100,100,0.2)" stroke="none" stroke-width="0" rx="0"/>
<rect x="330" y="105" width="6" height="6" fill="rgba(100,100,100,0.2)" stroke="none" stroke-width="0" rx="0"/>
<rect x="338" y="105" width="6" height="6" fill="rgba(100,100,100,0.2)" stroke="none" stroke-width="0" rx="0"/>
<rect x="346" y="105" width="6" height="6" fill="rgba(100,100,100,0.1)" stroke="none" stroke-width="0" rx="0"/>
<rect x="354" y="105" width="6" height="6" fill="rgba(100,100,100,0.2)" stroke="none" stroke-width="0" rx="0"/>
<rect x="362" y="105" width="6" height="6" fill="rgba(100,100,100,0.2)" stroke="none" stroke-width="0" rx="0"/>
<rect x="370" y="105" width="6" height="6" fill="rgba(100,100,100,0.1)" stroke="none" stroke-width="0" rx="0"/>
<rect x="378" y="105" width="6" height="6" fill="rgba(100,100,100,0.15000000000000002)" stroke="none" stroke-width="0" rx="0"/>
<rect x="386" y="105" width="6" height="6" fill="rgba(100,100,100,0.2)" stroke="none" stroke-width="0" rx="0"/>
<rect x="394" y="105" width="6" height="6" fill="rgba(100,100,100,0.2)" stroke="none" stroke-width="0" rx="0"/>
<rect x="402" y="105" width="6" height="6" fill="rgba(100,100,100,0.15000000000000002)" stroke="none" stroke-width="0" rx="0"/>
<rect x="410" y="105" width="6" height="6" fill="rgba(100,100,100,0.1)" stroke="none" stroke-width="0" rx="0"/>
<rect x="418" y="105" width="6" height="6" fill="rgba(100,100,100,0.1)" stroke="none" stroke-width="0" rx="0"/>
<rect x="426" y="105" width="6" height="6" fill="rgba(100,100,100,0.15000000000000002)" stroke="none" stroke-width="0" rx="0"/>
<rect x="434" y="105" width="6" height="6" fill="rgba(100,100,100,0.2)" stroke="none" stroke-width="0" rx="0"/>
<rect x="330" y="113" width="6" height="6" fill="rgba(100,100,100,0.2)" stroke="none" stroke-width="0" rx="0"/>
<rect x="338" y="113" width="6" height="6" fill="rgba(100,100,100,0.2)" stroke="none" stroke-width="0" rx="0"/>
<rect x="346" y="113" width="6" height="6" fill="rgba(100,100,100,0.1)" stroke="none" stroke-width="0" rx="0"/>
<rect x="354" y="113" width="6" height="6" fill="rgba(100,100,100,0.1)" stroke="none" stroke-width="0" rx="0"/>
<rect x="362" y="113" width="6" height="6" fill="rgba(100,100,100,0.2)" stroke="none" stroke-width="0" rx="0"/>
<rect x="370" y="113" width="6" height="6" fill="rgba(100,100,100,0.15000000000000002)" stroke="none" stroke-width="0" rx="0"/>
<rect x="378" y="113" width="6" height="6" fill="rgba(100,100,100,0.1)" stroke="none" stroke-width="0" rx="0"/>
<rect x="386" y="113" width="6" height="6" fill="rgba(100,100,100,0.1)" stroke="none" stroke-width="0" rx="0"/>
<rect x="394" y="113" width="6" height="6" fill="rgba(100,100,100,0.15000000000000002)" stroke="none" stroke-width="0" rx="0"/>
<rect x="402" y="113" width="6" height="6" fill="rgba(100,100,100,0.2)" stroke="none" stroke-width="0" rx="0"/>
<rect x="410" y="113" width="6" height="6" fill="rgba(100,100,100,0.1)" stroke="none" stroke-width="0" rx="0"/>
<rect x="418" y="113" width="6" height="6" fill="rgba(100,100,100,0.15000000000000002)" stroke="none" stroke-width="0" rx="0"/>
<rect x="426" y="113" width="6" height="6" fill="rgba(100,100,100,0.1)" stroke="none" stroke-width="0" rx="0"/>
<rect x="434" y="113" width="6" height="6" fill="rgba(100,100,100,0.1)" stroke="none" stroke-width="0" rx="0"/>
<rect x="330" y="121" width="6" height="6" fill="rgba(100,100,100,0.15000000000000002)" stroke="none" stroke-width="0" rx="0"/>
<rect x="338" y="121" width="6" height="6" fill="rgba(100,100,100,0.2)" stroke="none" stroke-width="0" rx="0"/>
<rect x="346" y="121" width="6" height="6" fill="rgba(100,100,100,0.15000000000000002)" stroke="none" stroke-width="0" rx="0"/>
<rect x="354" y="121" width="6" height="6" fill="rgba(100,100,100,0.1)" stroke="none" stroke-width="0" rx="0"/>
<rect x="362" y="121" width="6" height="6" fill="rgba(100,100,100,0.1)" stroke="none" stroke-width="0" rx="0"/>
<rect x="370" y="121" width="6" height="6" fill="rgba(100,100,100,0.15000000000000002)" stroke="none" stroke-width="0" rx="0"/>
<rect x="378" y="121" width="6" height="6" fill="rgba(100,100,100,0.15000000000000002)" stroke="none" stroke-width="0" rx="0"/>
<rect x="386" y="121" width="6" height="6" fill="rgba(100,100,100,0.1)" stroke="none" stroke-width="0" rx="0"/>
<rect x="394" y="121" width="6" height="6" fill="rgba(100,100,100,0.15000000000000002)" stroke="none" stroke-width="0" rx="0"/>
<rect x="402" y="121" width="6" height="6" fill="rgba(100,100,100,0.15000000000000002)" stroke="none" stroke-width="0" rx="0"/>
<rect x="410" y="121" width="6" height="6" fill="rgba(100,100,100,0.1)" stroke="none" stroke-width="0" rx="0"/>
<rect x="418" y="121" width="6" height="6" fill="rgba(100,100,100,0.15000000000000002)" stroke="none" stroke-width="0" rx="0"/>
<rect x="426" y="121" width="6" height="6" fill="rgba(100,100,100,0.15000000000000002)" stroke="none" stroke-width="0" rx="0"/>
<rect x="434" y="121" width="6" height="6" fill="rgba(100,100,100,0.1)" stroke="none" stroke-width="0" rx="0"/>
<rect x="330" y="129" width="6" height="6" fill="rgba(100,100,100,0.2)" stroke="none" stroke-width="0" rx="0"/>
<rect x="338" y="129" width="6" height="6" fill="rgba(100,100,100,0.2)" stroke="none" stroke-width="0" rx="0"/>
<rect x="346" y="129" width="6" height="6" fill="rgba(100,100,100,0.15000000000000002)" stroke="none" stroke-width="0" rx="0"/>
<rect x="354" y="129" width="6" height="6" fill="rgba(100,100,100,0.2)" stroke="none" stroke-width="0" rx="0"/>
<rect x="362" y="129" width="6" height="6" fill="rgba(100,100,100,0.1)" stroke="none" stroke-width="0" rx="0"/>
<rect x="370" y="129" width="6" height="6" fill="rgba(100,100,100,0.15000000000000002)" stroke="none" stroke-width="0" rx="0"/>
<rect x="378" y="129" width="6" height="6" fill="rgba(100,100,100,0.15000000000000002)" stroke="none" stroke-width="0" rx="0"/>
<rect x="386" y="129" width="6" height="6" fill="rgba(100,100,100,0.1)" stroke="none" stroke-width="0" rx="0"/>
<rect x="394" y="129" width="6" height="6" fill="rgba(100,100,100,0.2)" stroke="none" stroke-width="0" rx="0"/>
<rect x="402" y="129" width="6" height="6" fill="rgba(100,100,100,0.15000000000000002)" stroke="none" stroke-width="0" rx="0"/>
<rect x="410" y="129" width="6" height="6" fill="rgba(100,100,100,0.15000000000000002)" stroke="none" stroke-width="0" rx="0"/>
<rect x="418" y="129" width="6" height="6" fill="rgba(100,100,100,0.15000000000000002)" stroke="none" stroke-width="0" rx="0"/>
<rect x="426" y="129" width="6" height="6" fill="rgba(100,100,100,0.15000000000000002)" stroke="none" stroke-width="0" rx="0"/>
<rect x="434" y="129" width="6" height="6" fill="rgba(100,100,100,0.15000000000000002)" stroke="none" stroke-width="0" rx="0"/>
<rect x="330" y="137" width="6" height="6" fill="rgba(100,100,100,0.2)" stroke="none" stroke-width="0" rx="0"/>
<rect x="338" y="137" width="6" height="6" fill="rgba(100,100,100,0.2)" stroke="none" stroke-width="0" rx="0"/>
<rect x="346" y="137" width="6" height="6" fill="rgba(100,100,100,0.15000000000000002)" stroke="none" stroke-width="0" rx="0"/>
<rect x="354" y="137" width="6" height="6" fill="rgba(100,100,100,0.2)" stroke="none" stroke-width="0" rx="0"/>
<rect x="362" y="137" width="6" height="6" fill="rgba(100,100,100,0.1)" stroke="none" stroke-width="0" rx="0"/>
<rect x="370" y="137" width="6" height="6" fill="rgba(100,100,100,0.2)" stroke="none" stroke-width="0" rx="0"/>
<rect x="378" y="137" width="6" height="6" fill="rgba(100,100,100,0.15000000000000002)" stroke="none" stroke-width="0" rx="0"/>
<rect x="386" y="137" width="6" height="6" fill="rgba(100,100,100,0.15000000000000002)" stroke="none" stroke-width="0" rx="0"/>
<rect x="394" y="137" width="6" height="6" fill="rgba(100,100,100,0.2)" stroke="none" stroke-width="0" rx="0"/>
<rect x="402" y="137" width="6" height="6" fill="rgba(100,100,100,0.2)" stroke="none" stroke-width="0" rx="0"/>
<rect x="410" y="137" width="6" height="6" fill="rgba(100,100,100,0.15000000000000002)" stroke="none" stroke-width="0" rx="0"/>
<rect x="418" y="137" width="6" height="6" fill="rgba(100,100,100,0.2)" stroke="none" stroke-width="0" rx="0"/>
<rect x="426" y="137" width="6" height="6" fill="rgba(100,100,100,0.2)" stroke="none" stroke-width="0" rx="0"/>
<rect x="434" y="137" width="6" height="6" fill="rgba(100,100,100,0.15000000000000002)" stroke="none" stroke-width="0" rx="0"/>
<rect x="330" y="145" width="6" height="6" fill="rgba(100,100,100,0.1)" stroke="none" stroke-width="0" rx="0"/>
<rect x="338" y="145" width="6" height="6" fill="rgba(100,100,100,0.2)" stroke="none" stroke-width="0" rx="0"/>
<rect x="346" y="145" width="6" height="6" fill="rgba(100,100,100,0.2)" stroke="none" stroke-width="0" rx="0"/>
<rect x="354" y="145" width="6" height="6" fill="rgba(100,100,100,0.1)" stroke="none" stroke-width="0" rx="0"/>
<rect x="362" y="145" width="6" height="6" fill="rgba(100,100,100,0.1)" stroke="none" stroke-width="0" rx="0"/>
<rect x="370" y="145" width="6" height="6" fill="rgba(100,100,100,0.2)" stroke="none" stroke-width="0" rx="0"/>
<rect x="378" y="145" width="6" height="6" fill="rgba(100,100,100,0.2)" stroke="none" stroke-width="0" rx="0"/>
<rect x="386" y="145" width="6" height="6" fill="rgba(100,100,100,0.15000000000000002)" stroke="none" stroke-width="0" rx="0"/>
<rect x="394" y="145" width="6" height="6" fill="rgba(100,100,100,0.2)" stroke="none" stroke-width="0" rx="0"/>
<rect x="402" y="145" width="6" height="6" fill="rgba(100,100,100,0.2)" stroke="none" stroke-width="0" rx="0"/>
<rect x="410" y="145" width="6" height="6" fill="rgba(100,100,100,0.15000000000000002)" stroke="none" stroke-width="0" rx="0"/>
<rect x="418" y="145" width="6" height="6" fill="rgba(100,100,100,0.2)" stroke="none" stroke-width="0" rx="0"/>
<rect x="426" y="145" width="6" height="6" fill="rgba(100,100,100,0.2)" stroke="none" stroke-width="0" rx="0"/>
<rect x="434" y="145" width="6" height="6" fill="rgba(100,100,100,0.15000000000000002)" stroke="none" stroke-width="0" rx="0"/>
<rect x="330" y="153" width="6" height="6" fill="rgba(100,100,100,0.1)" stroke="none" stroke-width="0" rx="0"/>
<rect x="338" y="153" width="6" height="6" fill="rgba(100,100,100,0.2)" stroke="none" stroke-width="0" rx="0"/>
<rect x="346" y="153" width="6" height="6" fill="rgba(100,100,100,0.2)" stroke="none" stroke-width="0" rx="0"/>
<rect x="354" y="153" width="6" height="6" fill="rgba(100,100,100,0.1)" stroke="none" stroke-width="0" rx="0"/>
<rect x="362" y="153" width="6" height="6" fill="rgba(100,100,100,0.1)" stroke="none" stroke-width="0" rx="0"/>
<rect x="370" y="153" width="6" height="6" fill="rgba(100,100,100,0.2)" stroke="none" stroke-width="0" rx="0"/>
<rect x="378" y="153" width="6" height="6" fill="rgba(100,100,100,0.2)" stroke="none" stroke-width="0" rx="0"/>
<rect x="386" y="153" width="6" height="6" fill="rgba(100,100,100,0.2)" stroke="none" stroke-width="0" rx="0"/>
<rect x="394" y="153" width="6" height="6" fill="rgba(100,100,100,0.1)" stroke="none" stroke-width="0" rx="0"/>
<rect x="402" y="153" width="6" height="6" fill="rgba(100,100,100,0.2)" stroke="none" stroke-width="0" rx="0"/>
<rect x="410" y="153" width="6" height="6" fill="rgba(100,100,100,0.2)" stroke="none" stroke-width="0" rx="0"/>
<rect x="418" y="153" width="6" height="6" fill="rgba(100,100,100,0.2)" stroke="none" stroke-width="0" rx="0"/>
<rect x="426" y="153" width="6" height="6" fill="rgba(100,100,100,0.2)" stroke="none" stroke-width="0" rx="0"/>
<rect x="434" y="153" width="6" height="6" fill="rgba(100,100,100,0.2)" stroke="none" stroke-width="0" rx="0"/>
<rect x="330" y="161" width="6" height="6" fill="rgba(100,100,100,0.1)" stroke="none" stroke-width="0" rx="0"/>
<rect x="338" y="161" width="6" height="6" fill="rgba(100,100,100,0.1)" stroke="none" stroke-width="0" rx="0"/>
<rect x="346" y="161" width="6" height="6" fill="rgba(100,100,100,0.2)" stroke="none" stroke-width="0" rx="0"/>
<rect x="354" y="161" width="6" height="6" fill="rgba(100,100,100,0.15000000000000002)" stroke="none" stroke-width="0" rx="0"/>
<rect x="362" y="161" width="6" height="6" fill="rgba(100,100,100,0.1)" stroke="none" stroke-width="0" rx="0"/>
<rect x="370" y="161" width="6" height="6" fill="rgba(100,100,100,0.1)" stroke="none" stroke-width="0" rx="0"/>
<rect x="378" y="161" width="6" height="6" fill="rgba(100,100,100,0.1)" stroke="none" stroke-width="0" rx="0"/>
<rect x="386" y="161" width="6" height="6" fill="rgba(100,100,100,0.15000000000000002)" stroke="none" stroke-width="0" rx="0"/>
<rect x="394" y="161" width="6" height="6" fill="rgba(100,100,100,0.1)" stroke="none" stroke-width="0" rx="0"/>
<rect x="402" y="161" width="6" height="6" fill="rgba(100,100,100,0.1)" stroke="none" stroke-width="0" rx="0"/>
<rect x="410" y="161" width="6" height="6" fill="rgba(100,100,100,0.2)" stroke="none" stroke-width="0" rx="0"/>
<rect x="418" y="161" width="6" height="6" fill="rgba(100,100,100,0.1)" stroke="none" stroke-width="0" rx="0"/>
<rect x="426" y="161" width="6" height="6" fill="rgba(100,100,100,0.1)" stroke="none" stroke-width="0" rx="0"/>
<rect x="434" y="161" width="6" height="6" fill="rgba(100,100,100,0.15000000000000002)" stroke="none" stroke-width="0" rx="0"/>
<rect x="330" y="169" width="6" height="6" fill="rgba(100,100,100,0.15000000000000002)" stroke="none" stroke-width="0" rx="0"/>
<rect x="338" y="169" width="6" height="6" fill="rgba(100,100,100,0.1)" stroke="none" stroke-width="0" rx="0"/>
<rect x="346" y="169" width="6" height="6" fill="rgba(100,100,100,0.1)" stroke="none" stroke-width="0" rx="0"/>
<rect x="354" y="169" width="6" height="6" fill="rgba(100,100,100,0.15000000000000002)" stroke="none" stroke-width="0" rx="0"/>
<rect x="362" y="169" width="6" height="6" fill="rgba(100,100,100,0.15000000000000002)" stroke="none" stroke-width="0" rx="0"/>
<rect x="370" y="169" width="6" height="6" fill="rgba(100,100,100,0.1)" stroke="none" stroke-width="0" rx="0"/>
<rect x="378" y="169" width="6" height="6" fill="rgba(100,100,100,0.1)" stroke="none" stroke-width="0" rx="0"/>
<rect x="386" y="169" width="6" height="6" fill="rgba(100,100,100,0.15000000000000002)" stroke="none" stroke-width="0" rx="0"/>
<rect x="394" y="169" width="6" height="6" fill="rgba(100,100,100,0.1)" stroke="none" stroke-width="0" rx="0"/>
<rect x="402" y="169" width="6" height="6" fill="rgba(100,100,100,0.1)" stroke="none" stroke-width="0" rx="0"/>
<rect x="410" y="169" width="6" height="6" fill="rgba(100,100,100,0.15000000000000002)" stroke="none" stroke-width="0" rx="0"/>
<rect x="418" y="169" width="6" height="6" fill="rgba(100,100,100,0.1)" stroke="none" stroke-width="0" rx="0"/>
<rect x="426" y="169" width="6" height="6" fill="rgba(100,100,100,0.1)" stroke="none" stroke-width="0" rx="0"/>
<rect x="434" y="169" width="6" height="6" fill="rgba(100,100,100,0.15000000000000002)" stroke="none" stroke-width="0" rx="0"/>
<rect x="477" y="62" width="116" height="116" fill="#ddd" stroke="none" stroke-width="0" rx="0"/>
<text x="535" y="125" text-anchor="middle" font-family="Arial,sans-serif" font-size="12" fill="#aaa">Washed</text>
<text x="535" y="142" text-anchor="middle" font-family="Arial,sans-serif" font-size="12" fill="#aaa">Out</text>
<text x="300" y="210" text-anchor="middle" font-family="Arial,sans-serif" font-size="11" fill="#888">Each issue requires different corrective action</text>
<text x="300" y="250" text-anchor="middle" font-family="Arial,sans-serif" font-size="14" fill="#333" font-weight="bold">Corrective Actions:</text>
<text x="300" y="275" text-anchor="middle" font-family="Arial,sans-serif" font-size="11" fill="#555">Motion: Shorter exposure time, immobilization</text>
<text x="300" y="297" text-anchor="middle" font-family="Arial,sans-serif" font-size="11" fill="#555">Grid Cutoff: Proper grid alignment, correct SID</text>
<text x="300" y="319" text-anchor="middle" font-family="Arial,sans-serif" font-size="11" fill="#555">Underexposure: Increase mAs or decrease SID</text>
<text x="300" y="341" text-anchor="middle" font-family="Arial,sans-serif" font-size="11" fill="#555">Overexposure: Decrease mAs or increase SID</text>
</svg>
