<svg xmlns="http://www.w3.org/2000/svg" viewBox="0 0 400 450" width="400" height="450">
<rect width="400" height="450" fill="#f0f4ff"/>
<text x="200" y="25" text-anchor="middle" font-family="Arial,sans-serif" font-size="16" fill="#333" font-weight="bold">Lateral Knee (Diagram)</text>
<rect x="160" y="40" width="35" height="160" fill="#f5ebe0" stroke="#8B7355" stroke-width="2" rx="5"/>
<ellipse cx="178" cy="210" rx="40" ry="30" fill="#f5ebe0" stroke="#8B7355" stroke-width="2"/>
<rect x="155" y="260" width="50" height="160" fill="#f5ebe0" stroke="#8B7355" stroke-width="2" rx="5"/>
<rect x="145" y="250" width="70" height="15" fill="#f5ebe0" stroke="#8B7355" stroke-width="2" rx="3"/>
<ellipse cx="140" cy="215" rx="18" ry="22" fill="#f5ebe0" stroke="#8B7355" stroke-width="2"/>
<rect x="220" y="265" width="15" height="150" fill="#f5ebe0" stroke="#8B7355" stroke-width="1.5" rx="3"/>
<circle cx="228" cy="265" r="10" fill="#f5ebe0" stroke="#8B7355" stroke-width="1.5"/>
<line x1="140" y1="240" x2="220" y2="240" stroke="#999" stroke-width="1" stroke-dasharray="4,3"/>
<text x="250" y="244" text-anchor="start" font-family="Arial,sans-serif" font-size="9" fill="#999">Joint space</text>
<text x="90" y="120" text-anchor="end" font-family="Arial,sans-serif" font-size="11" fill="#2c5282">Femur</text>
<line x1="95" y1="118" x2="155" y2="118" stroke="#2c5282" stroke-width="1"/>
<text x="90" y="340" text-anchor="end" font-family="Arial,sans-serif" font-size="11" fill="#2c5282">Tibia</text>
<line x1="95" y1="338" x2="150" y2="338" stroke="#2c5282" stroke-width="1"/>
<text x="260" y="340" text-anchor="start" font-family="Arial,sans-serif" font-size="11" fill="#2c5282">Fibula</text>
<line x1="255" y1="338" x2="238" y2="338" stroke="#2c5282" stroke-width="1"/>
<line x1="55" y1="215" x2="118" y2="215" stroke="#e74c3c" stroke-width="2.5"/>
<polygon points="118,215 108.78939005997115,218.8941834230865 108.78939005997115,211.1058165769135" fill="#e74c3c"/>
<text x="50" y="210" text-anchor="end" font-family="Arial,sans-serif" font-size="18" fill="#e74c3c" font-weight="bold">?</text>
</svg>
