<svg xmlns="http://www.w3.org/2000/svg" viewBox="0 0 500 400" width="500" height="400">
<rect width="500" height="400" fill="#f0f4ff"/>
<text x="250" y="25" text-anchor="middle" font-family="Arial,sans-serif" font-size="16" fill="#333" font-weight="bold">AP Pelvis (Diagram)</text>
<path d="M150,120 Q100,80 80,130 Q70,180 120,200 L180,210 Q200,180 200,150 Z" fill="#f5ebe0" stroke="#8B7355" stroke-width="2"/>
<path d="M350,120 Q400,80 420,130 Q430,180 380,200 L320,210 Q300,180 300,150 Z" fill="#f5ebe0" stroke="#8B7355" stroke-width="2"/>
<path d="M200,120 L300,120 L290,200 L210,200 Z" fill="#e8ddd0" stroke="#8B7355" stroke-width="2"/>
<circle cx="175" cy="230" r="35" fill="none" stroke="#8B7355" stroke-width="2"/>
<circle cx="325" cy="230" r="35" fill="none" stroke="#8B7355" stroke-width="2"/>
<circle cx="175" cy="230" r="25" fill="#f5ebe0" stroke="#666" stroke-width="1.5"/>
<circle cx="325" cy="230" r="25" fill="#f5ebe0" stroke="#666" stroke-width="1.5"/>
<path d="M160,255 L140,340" fill="none" stroke="#8B7355" stroke-width="8"/>
<path d="M340,255 L360,340" fill="none" stroke="#8B7355" stroke-width="8"/>
<ellipse cx="130" cy="260" rx="15" ry="10" fill="#f5ebe0" stroke="#8B7355" stroke-width="1.5"/>
<ellipse cx="370" cy="260" rx="15" ry="10" fill="#f5ebe0" stroke="#8B7355" stroke-width="1.5"/>
<ellipse cx="185" cy="280" rx="20" ry="30" fill="#ddd" stroke="#8B7355" stroke-width="1"/>
<ellipse cx="315" cy="280" rx="20" ry="30" fill="#ddd" stroke="#8B7355" stroke-width="1"/>
<line x1="230" y1="290" x2="270" y2="290" stroke="#8B7355" stroke-width="3"/>
<line x1="50" y1="260" x2="112" y2="260" stroke="#e74c3c" stroke-width="2.5"/>
<polygon points="112,260 102.78939005997115,263.89418342308653 102.78939005997115,256.10581657691347" fill="#e74c3c"/>
<text x="45" y="255" text-anchor="end" font-family="Arial,sans-serif" font-size="18" fill="#e74c3c" font-weight="bold">?</text>
<text x="250" y="160" text-anchor="middle" font-family="Arial,sans-serif" font-size="10" fill="#2c5282">Sacrum</text>
<text x="100" y="100" text-anchor="middle" font-family="Arial,sans-serif" font-size="10" fill="#2c5282">Iliac crest</text>
<text x="250" y="300" text-anchor="middle" font-family="Arial,sans-serif" font-size="10" fill="#2c5282">Pubic symphysis</text>
<text x="250" y="380" text-anchor="middle" font-family="Arial,sans-serif" font-size="13" fill="#444">Which structure is indicated by the arrow?</text>
</svg>
