<svg xmlns="http://www.w3.org/2000/svg" viewBox="0 0 450 400" width="450" height="400">
<rect width="450" height="400" fill="#f0f4ff"/>
<text x="225" y="25" text-anchor="middle" font-family="Arial,sans-serif" font-size="16" fill="#333" font-weight="bold">Lateral Skull (Diagram)</text>
<ellipse cx="200" cy="160" rx="130" ry="110" fill="#f5ebe0" stroke="#8B7355" stroke-width="2"/>
<path d="M100,180 Q80,220 100,260 L150,280 L180,260 L180,200 Z" fill="#f5ebe0" stroke="#8B7355" stroke-width="2"/>
<path d="M100,260 Q90,300 130,320 L200,310 Q220,290 210,260" fill="#f5ebe0" stroke="#8B7355" stroke-width="2"/>
<ellipse cx="130" cy="200" rx="25" ry="20" fill="#ddd" stroke="#8B7355" stroke-width="1.5"/>
<circle cx="255" cy="220" r="8" fill="#ddd" stroke="#8B7355" stroke-width="1.5"/>
<path d="M190,200 Q200,210 210,200" fill="none" stroke="#8B7355" stroke-width="1.5"/>
<line x1="205" y1="60" x2="200" y2="80" stroke="#2c5282" stroke-width="1"/>
<text x="200" y="57" text-anchor="end" font-family="Arial,sans-serif" font-size="10" fill="#2c5282">Vertex</text>
<line x1="320" y1="160" x2="300" y2="160" stroke="#2c5282" stroke-width="1"/>
<text x="325" y="157" text-anchor="start" font-family="Arial,sans-serif" font-size="10" fill="#2c5282">Parietal bone</text>
<line x1="335" y1="220" x2="268" y2="220" stroke="#2c5282" stroke-width="1"/>
<text x="340" y="217" text-anchor="start" font-family="Arial,sans-serif" font-size="10" fill="#2c5282">EAM</text>
<line x1="135" y1="200" x2="130" y2="200" stroke="#2c5282" stroke-width="1"/>
<text x="130" y="197" text-anchor="end" font-family="Arial,sans-serif" font-size="10" fill="#2c5282">Orbit</text>
<line x1="335" y1="100" x2="280" y2="100" stroke="#2c5282" stroke-width="1"/>
<text x="340" y="97" text-anchor="start" font-family="Arial,sans-serif" font-size="10" fill="#2c5282">Frontal bone</text>
<line x1="335" y1="300" x2="220" y2="300" stroke="#2c5282" stroke-width="1"/>
<text x="340" y="297" text-anchor="start" font-family="Arial,sans-serif" font-size="10" fill="#2c5282">Mandible</text>
<line x1="390" y1="220" x2="268" y2="220" stroke="#e74c3c" stroke-width="2.5"/>
<polygon points="268,220 277.21060994002886,216.1058165769135 277.21060994002886,223.8941834230865" fill="#e74c3c"/>
<text x="395" y="224" text-anchor="start" font-family="Arial,sans-serif" font-size="18" fill="#e74c3c" font-weight="bold">?</text>
</svg>
