<svg xmlns="http://www.w3.org/2000/svg" viewBox="0 0 400 550" width="400" height="550">
<rect width="400" height="550" fill="#f0f4ff"/>
<text x="200" y="25" text-anchor="middle" font-family="Arial,sans-serif" font-size="16" fill="#333" font-weight="bold">Lateral Vertebral Column</text>
<rect x="170" y="50" width="30" height="12" fill="#e3f2fd" stroke="#666" stroke-width="1" rx="2"/>
<rect x="200" y="52" width="15" height="8" fill="#e3f2fd" stroke="#666" stroke-width="1" rx="0"/>
<rect x="170" y="65" width="30" height="12" fill="#e3f2fd" stroke="#666" stroke-width="1" rx="2"/>
<rect x="200" y="67" width="15" height="8" fill="#e3f2fd" stroke="#666" stroke-width="1" rx="0"/>
<rect x="170" y="80" width="30" height="12" fill="#e3f2fd" stroke="#666" stroke-width="1" rx="2"/>
<rect x="200" y="82" width="15" height="8" fill="#e3f2fd" stroke="#666" stroke-width="1" rx="0"/>
<rect x="170" y="95" width="30" height="12" fill="#e3f2fd" stroke="#666" stroke-width="1" rx="2"/>
<rect x="200" y="97" width="15" height="8" fill="#e3f2fd" stroke="#666" stroke-width="1" rx="0"/>
<rect x="170" y="110" width="30" height="12" fill="#e3f2fd" stroke="#666" stroke-width="1" rx="2"/>
<rect x="200" y="112" width="15" height="8" fill="#e3f2fd" stroke="#666" stroke-width="1" rx="0"/>
<rect x="170" y="125" width="30" height="12" fill="#e3f2fd" stroke="#666" stroke-width="1" rx="2"/>
<rect x="200" y="127" width="15" height="8" fill="#e3f2fd" stroke="#666" stroke-width="1" rx="0"/>
<rect x="170" y="140" width="30" height="12" fill="#e3f2fd" stroke="#666" stroke-width="1" rx="2"/>
<rect x="200" y="142" width="15" height="8" fill="#e3f2fd" stroke="#666" stroke-width="1" rx="0"/>
<line x1="120" y1="99" x2="165" y2="99" stroke="#999" stroke-width="1" stroke-dasharray="3,3"/>
<text x="115" y="103" text-anchor="end" font-family="Arial,sans-serif" font-size="11" fill="#444">Cervical (C1-C7)</text>
<rect x="170" y="155" width="35" height="12" fill="#e8f5e9" stroke="#666" stroke-width="1" rx="2"/>
<rect x="205" y="157" width="15" height="8" fill="#e8f5e9" stroke="#666" stroke-width="1" rx="0"/>
<rect x="170" y="170" width="35" height="12" fill="#e8f5e9" stroke="#666" stroke-width="1" rx="2"/>
<rect x="205" y="172" width="15" height="8" fill="#e8f5e9" stroke="#666" stroke-width="1" rx="0"/>
<rect x="170" y="185" width="35" height="12" fill="#e8f5e9" stroke="#666" stroke-width="1" rx="2"/>
<rect x="205" y="187" width="15" height="8" fill="#e8f5e9" stroke="#666" stroke-width="1" rx="0"/>
<rect x="170" y="200" width="35" height="12" fill="#e8f5e9" stroke="#666" stroke-width="1" rx="2"/>
<rect x="205" y="202" width="15" height="8" fill="#e8f5e9" stroke="#666" stroke-width="1" rx="0"/>
<rect x="170" y="215" width="35" height="12" fill="#e8f5e9" stroke="#666" stroke-width="1" rx="2"/>
<rect x="205" y="217" width="15" height="8" fill="#e8f5e9" stroke="#666" stroke-width="1" rx="0"/>
<rect x="170" y="230" width="35" height="12" fill="#e8f5e9" stroke="#666" stroke-width="1" rx="2"/>
<rect x="205" y="232" width="15" height="8" fill="#e8f5e9" stroke="#666" stroke-width="1" rx="0"/>
<rect x="170" y="245" width="35" height="12" fill="#e8f5e9" stroke="#666" stroke-width="1" rx="2"/>
<rect x="205" y="247" width="15" height="8" fill="#e8f5e9" stroke="#666" stroke-width="1" rx="0"/>
<rect x="170" y="260" width="35" height="12" fill="#e8f5e9" stroke="#666" stroke-width="1" rx="2"/>
<rect x="205" y="262" width="15" height="8" fill="#e8f5e9" stroke="#666" stroke-width="1" rx="0"/>
<rect x="170" y="275" width="35" height="12" fill="#e8f5e9" stroke="#666" stroke-width="1" rx="2"/>
<rect x="205" y="277" width="15" height="8" fill="#e8f5e9" stroke="#666" stroke-width="1" rx="0"/>
<rect x="170" y="290" width="35" height="12" fill="#e8f5e9" stroke="#666" stroke-width="1" rx="2"/>
<rect x="205" y="292" width="15" height="8" fill="#e8f5e9" stroke="#666" stroke-width="1" rx="0"/>
<rect x="170" y="305" width="35" height="12" fill="#e8f5e9" stroke="#666" stroke-width="1" rx="2"/>
<rect x="205" y="307" width="15" height="8" fill="#e8f5e9" stroke="#666" stroke-width="1" rx="0"/>
<rect x="170" y="320" width="35" height="12" fill="#e8f5e9" stroke="#666" stroke-width="1" rx="2"/>
<rect x="205" y="322" width="15" height="8" fill="#e8f5e9" stroke="#666" stroke-width="1" rx="0"/>
<line x1="120" y1="239" x2="165" y2="239" stroke="#999" stroke-width="1" stroke-dasharray="3,3"/>
<text x="115" y="243" text-anchor="end" font-family="Arial,sans-serif" font-size="11" fill="#444">Thoracic (T1-T12)</text>
<rect x="170" y="345" width="40" height="12" fill="#fff3e0" stroke="#666" stroke-width="1" rx="2"/>
<rect x="210" y="347" width="15" height="8" fill="#fff3e0" stroke="#666" stroke-width="1" rx="0"/>
<rect x="170" y="360" width="40" height="12" fill="#fff3e0" stroke="#666" stroke-width="1" rx="2"/>
<rect x="210" y="362" width="15" height="8" fill="#fff3e0" stroke="#666" stroke-width="1" rx="0"/>
<rect x="170" y="375" width="40" height="12" fill="#fff3e0" stroke="#666" stroke-width="1" rx="2"/>
<rect x="210" y="377" width="15" height="8" fill="#fff3e0" stroke="#666" stroke-width="1" rx="0"/>
<rect x="170" y="390" width="40" height="12" fill="#fff3e0" stroke="#666" stroke-width="1" rx="2"/>
<rect x="210" y="392" width="15" height="8" fill="#fff3e0" stroke="#666" stroke-width="1" rx="0"/>
<rect x="170" y="405" width="40" height="12" fill="#fff3e0" stroke="#666" stroke-width="1" rx="2"/>
<rect x="210" y="407" width="15" height="8" fill="#fff3e0" stroke="#666" stroke-width="1" rx="0"/>
<line x1="120" y1="380" x2="165" y2="380" stroke="#999" stroke-width="1" stroke-dasharray="3,3"/>
<text x="115" y="384" text-anchor="end" font-family="Arial,sans-serif" font-size="11" fill="#444">Lumbar (L1-L5)</text>
<rect x="170" y="445" width="40" height="12" fill="#fce4ec" stroke="#666" stroke-width="1" rx="2"/>
<rect x="210" y="447" width="15" height="8" fill="#fce4ec" stroke="#666" stroke-width="1" rx="0"/>
<line x1="120" y1="452" x2="165" y2="452" stroke="#999" stroke-width="1" stroke-dasharray="3,3"/>
<text x="115" y="456" text-anchor="end" font-family="Arial,sans-serif" font-size="11" fill="#444">Sacrum</text>
<rect x="170" y="490" width="40" height="12" fill="#f3e5f5" stroke="#666" stroke-width="1" rx="2"/>
<rect x="210" y="492" width="15" height="8" fill="#f3e5f5" stroke="#666" stroke-width="1" rx="0"/>
<line x1="120" y1="497" x2="165" y2="497" stroke="#999" stroke-width="1" stroke-dasharray="3,3"/>
<text x="115" y="501" text-anchor="end" font-family="Arial,sans-serif" font-size="11" fill="#444">Coccyx</text>
<line x1="300" y1="380" x2="215" y2="380" stroke="#e74c3c" stroke-width="2.5"/>
<polygon points="215,380 224.21060994002886,376.10581657691347 224.21060994002886,383.89418342308653" fill="#e74c3c"/>
<text x="310" y="384" text-anchor="start" font-family="Arial,sans-serif" font-size="18" fill="#e74c3c" font-weight="bold">?</text>
<text x="200" y="530" text-anchor="middle" font-family="Arial,sans-serif" font-size="13" fill="#444">Which vertebral region is indicated?</text>
</svg>
