<svg xmlns="http://www.w3.org/2000/svg" viewBox="0 0 400 450" width="400" height="450">
<rect width="400" height="450" fill="#ffffff"/>
<text x="200" y="25" text-anchor="middle" font-family="Arial,sans-serif" font-size="18" fill="#333" font-weight="bold">PA Wrist — Carpal Bones</text>
<ellipse cx="80" cy="130" rx="35" ry="28" fill="#e8d4b8" stroke="#8b6914" stroke-width="2"/>
<text x="80" y="135" text-anchor="middle" font-family="Arial,sans-serif" font-size="10" fill="#5a3e1b">Trapezium</text>
<ellipse cx="160" cy="120" rx="35" ry="28" fill="#e8d4b8" stroke="#8b6914" stroke-width="2"/>
<text x="160" y="125" text-anchor="middle" font-family="Arial,sans-serif" font-size="10" fill="#5a3e1b">Trapezoid</text>
<ellipse cx="240" cy="120" rx="35" ry="28" fill="#e8d4b8" stroke="#8b6914" stroke-width="2"/>
<text x="240" y="125" text-anchor="middle" font-family="Arial,sans-serif" font-size="10" fill="#5a3e1b">Capitate</text>
<ellipse cx="320" cy="130" rx="35" ry="28" fill="#e8d4b8" stroke="#8b6914" stroke-width="2"/>
<text x="320" y="135" text-anchor="middle" font-family="Arial,sans-serif" font-size="10" fill="#5a3e1b">Hamate</text>
<ellipse cx="90" cy="230" rx="35" ry="28" fill="#f0dfc4" stroke="#8b6914" stroke-width="2"/>
<text x="90" y="235" text-anchor="middle" font-family="Arial,sans-serif" font-size="10" fill="#5a3e1b">Scaphoid</text>
<ellipse cx="180" cy="220" rx="35" ry="28" fill="#f0dfc4" stroke="#8b6914" stroke-width="2"/>
<text x="180" y="225" text-anchor="middle" font-family="Arial,sans-serif" font-size="10" fill="#5a3e1b">Lunate</text>
<ellipse cx="270" cy="230" rx="35" ry="28" fill="#f0dfc4" stroke="#8b6914" stroke-width="2"/>
<text x="270" y="235" text-anchor="middle" font-family="Arial,sans-serif" font-size="10" fill="#5a3e1b">Triquetrum</text>
<ellipse cx="330" cy="260" rx="35" ry="28" fill="#f0dfc4" stroke="#8b6914" stroke-width="2"/>
<text x="330" y="265" text-anchor="middle" font-family="Arial,sans-serif" font-size="10" fill="#5a3e1b">Pisiform</text>
<rect x="50" y="300" width="130" height="120" fill="#f5e6d0" stroke="#8b6914" stroke-width="2" rx="10"/>
<text x="115" y="365" text-anchor="middle" font-family="Arial,sans-serif" font-size="14" fill="#5a3e1b">Radius</text>
<rect x="220" y="300" width="120" height="120" fill="#f5e6d0" stroke="#8b6914" stroke-width="2" rx="10"/>
<text x="280" y="365" text-anchor="middle" font-family="Arial,sans-serif" font-size="14" fill="#5a3e1b">Ulna</text>
<rect x="68" y="40" width="24" height="80" fill="#f5e6d0" stroke="#8b6914" stroke-width="1.5" rx="8"/>
<rect x="128" y="40" width="24" height="80" fill="#f5e6d0" stroke="#8b6914" stroke-width="1.5" rx="8"/>
<rect x="188" y="40" width="24" height="80" fill="#f5e6d0" stroke="#8b6914" stroke-width="1.5" rx="8"/>
<rect x="248" y="40" width="24" height="80" fill="#f5e6d0" stroke="#8b6914" stroke-width="1.5" rx="8"/>
<rect x="308" y="40" width="24" height="80" fill="#f5e6d0" stroke="#8b6914" stroke-width="1.5" rx="8"/>
<text x="200" y="80" text-anchor="middle" font-family="Arial,sans-serif" font-size="11" fill="#777">Metacarpals</text>
<line x1="50" y1="280" x2="75" y2="245" stroke="#e74c3c" stroke-width="2.5"/>
<polygon points="75,245 72.81526910979038,254.75842973727657 66.47761432102257,250.23153345958528" fill="#e74c3c"/>
<text x="40" y="295" text-anchor="middle" font-family="Arial,sans-serif" font-size="20" fill="#e74c3c" font-weight="bold">?</text>
<text x="200" y="440" text-anchor="middle" font-family="Arial,sans-serif" font-size="11" fill="#888">Proximal row (bottom) — Distal row (top)</text>
</svg>
