<svg xmlns="http://www.w3.org/2000/svg" viewBox="0 0 550 350" width="550" height="350">
<rect width="550" height="350" fill="#f8f9fa"/>
<text x="275" y="25" text-anchor="middle" font-family="Arial,sans-serif" font-size="16" fill="#333" font-weight="bold">X-ray Tube Diagram</text>
<ellipse cx="275" cy="180" rx="200" ry="100" fill="#e8f4fd" stroke="#3498db" stroke-width="2"/>
<text x="275" y="50" text-anchor="middle" font-family="Arial,sans-serif" font-size="11" fill="#3498db">Glass Envelope (Vacuum)</text>
<rect x="100" y="150" width="40" height="60" fill="#555" stroke="#333" stroke-width="2" rx="3"/>
<text x="120" y="145" text-anchor="middle" font-family="Arial,sans-serif" font-size="11" fill="#333" font-weight="bold">Cathode</text>
<path d="M115,165 Q110,175 115,185 Q120,195 115,205" fill="none" stroke="#e74c3c" stroke-width="3"/>
<text x="120" y="225" text-anchor="middle" font-family="Arial,sans-serif" font-size="9" fill="#e74c3c">Filament</text>
<path d="M100,148 L95,140 L145,140 L140,148" fill="none" stroke="#666" stroke-width="2"/>
<text x="120" y="135" text-anchor="middle" font-family="Arial,sans-serif" font-size="9" fill="#666">Focusing cup</text>
<path d="M380,130 L440,180 L380,230 Z" fill="#ccc" stroke="#333" stroke-width="2"/>
<text x="420" y="125" text-anchor="middle" font-family="Arial,sans-serif" font-size="11" fill="#333" font-weight="bold">Anode</text>
<text x="420" y="140" text-anchor="middle" font-family="Arial,sans-serif" font-size="9" fill="#666">(Target)</text>
<path d="M380,180 L400,180" fill="none" stroke="#999" stroke-width="1"/>
<path d="M380,180 L395,165" fill="none" stroke="#999" stroke-width="1"/>
<text x="395" y="195" text-anchor="middle" font-family="Arial,sans-serif" font-size="8" fill="#999">Anode angle</text>
<line x1="145" y1="180" x2="380" y2="180" stroke="#e74c3c" stroke-width="1.5" stroke-dasharray="6,4"/>
<text x="260" y="173" text-anchor="middle" font-family="Arial,sans-serif" font-size="9" fill="#e74c3c">Electron beam →</text>
<line x1="395" y1="200" x2="430" y2="280" stroke="#f39c12" stroke-width="2"/>
<line x1="395" y1="200" x2="460" y2="280" stroke="#f39c12" stroke-width="2"/>
<line x1="430" y1="280" x2="460" y2="280" stroke="#f39c12" stroke-width="1"/>
<text x="445" y="300" text-anchor="middle" font-family="Arial,sans-serif" font-size="10" fill="#f39c12" font-weight="bold">X-ray beam</text>
<circle cx="410" cy="180" r="8" fill="#888" stroke="#333" stroke-width="1"/>
<text x="440" y="180" text-anchor="start" font-family="Arial,sans-serif" font-size="9" fill="#666">Rotor</text>
<line x1="50" y1="180" x2="95" y2="180" stroke="#e74c3c" stroke-width="2.5"/>
<polygon points="95,180 85.78939005997115,183.8941834230865 85.78939005997115,176.1058165769135" fill="#e74c3c"/>
<text x="45" y="184" text-anchor="end" font-family="Arial,sans-serif" font-size="18" fill="#e74c3c" font-weight="bold">?</text>
</svg>
